<?xml version="1.0" encoding="UTF-8"?>
<svg id="uuid-8c47a2f5-498c-400b-8662-408ae6c0fc89" data-name="Layer 3" xmlns="http://www.w3.org/2000/svg" viewBox="0 0 1326.08 732.58">
  <defs>
    <style>
      .uuid-1498d2a2-c1ab-4ed1-9a53-9d17f7c23167 {
        fill: #fb6b05;
      }
    </style>
  </defs>
  <path class="uuid-1498d2a2-c1ab-4ed1-9a53-9d17f7c23167" d="M664.5,490.83c-.76,2.03-2.39,3.66-3.59,3.66s-2.17-1.64-2.17-3.66,1.61-3.66,3.59-3.66c2.17,0,3.03,1.44,2.17,3.66Z"/>
  <path class="uuid-1498d2a2-c1ab-4ed1-9a53-9d17f7c23167" d="M631.86,727.52c-33.96,5.89-90.75,6.89-96.03,1.69-1.07-1.07,18.03-21.62,42.48-45.66,122-119.99,172-191.4,192.33-274.6,2.78-11.38,5.81-27.58,6.74-35.98.93-8.4,2.78-15.27,4.13-15.27,2.17,0,33.35,21.99,54.33,38.33,4.03,3.13,13.7,10.16,21.5,15.61l14.17,9.92-1.59,11.43c-5.59,40.26-25.82,106.27-43.14,140.71-42.9,85.4-111.22,139.32-194.92,153.83Z"/>
  <path class="uuid-1498d2a2-c1ab-4ed1-9a53-9d17f7c23167" d="M535.3,363.19c-.76,5.03-2.69,9.11-4.32,9.06-1.61-.07-21.62-13.95-44.46-30.88l-41.53-30.76.44-14.44c.54-17.88,13.05-68.79,24.5-99.72,11.75-31.76,32.49-71.8,47.64-91.95,37.77-50.3,92.54-85.26,155.83-99.45,26.9-6.03,103.99-6.96,102.06-1.22-.39,1.2-23.87,25.53-52.18,54.06-57.77,58.21-79.39,82.42-109.07,122.17-47.93,64.1-68.21,111.18-78.91,183.12Z"/>
  <path class="uuid-1498d2a2-c1ab-4ed1-9a53-9d17f7c23167" d="M1025.12,458.31c.02,14.36-.78,26.6-1.78,27.21-1,.59-24.92-21.47-53.13-49.08-49.35-48.22-90.07-84.94-118.48-106.78-60.95-46.83-122.39-74.95-180.16-82.42-12.43-1.61-22.6-4.03-22.6-5.37,0-2.91,13.07-21.99,40.75-59.46,19.84-26.85,20.52-27.48,29.83-27.48,17.61,0,73.19,13.17,104.73,24.82,134.11,49.49,200.61,141.71,200.85,278.56Z"/>
  <path class="uuid-1498d2a2-c1ab-4ed1-9a53-9d17f7c23167" d="M615.4,559.03c-7.74,10.63-15.17,19.62-16.51,19.98-3,.81-50.86-9.23-70.84-14.85-43.12-12.14-99.72-38.04-125.81-57.55-56.99-42.65-89.63-91.22-104.99-156.25-6.45-27.41-10.99-80.64-8.18-96.49l2.15-12.21,29.27,29.34c146.4,146.84,223.87,198.61,319.26,213.34l20.96,3.25c-1.17.61-1.95,1.83-1.95,3.25,0,2.03.98,3.66,2.17,3.66.27,0,.56-.07.85-.22l-14.07,19.76c-10.04,14.1-24.58,34.35-32.29,45Z"/>
  <path class="uuid-1498d2a2-c1ab-4ed1-9a53-9d17f7c23167" d="M664.74,490.07c.17-.76.1-1.42-.17-1.91l1.37.22-1.2,1.69Z"/>
</svg>