<?xml version="1.0" encoding="UTF-8"?>
<svg id="uuid-8dc0c9e9-32e9-4296-a388-99109eca0c84" data-name="Layer 2" xmlns="http://www.w3.org/2000/svg" viewBox="20 285 1290 100">
  <defs>
    <style>
      .uuid-601e8162-865d-41bc-bc1a-892e7712dc9e {
        fill: #fb6b05;
      }
    </style>
  </defs>
  <path class="uuid-601e8162-865d-41bc-bc1a-892e7712dc9e" d="M934.56,368.63l-.51,8.05-33.05.44c-37.97.51-42.05-.53-48.68-12.3-3.46-6.15-3.8-8.97-3.75-30.51.08-27.37,1.71-33.86,9.88-39.36,5.54-3.71,7.1-3.86,41.1-3.86h35.34v6.44c0,3.54-.92,7.36-2.03,8.47-1.42,1.42-10.95,2.03-32,2.03-32.81,0-33.03.07-34.02,10.17l-.59,5.93,30.46.46c16.76.25,31.12,1.12,31.9,1.9,2.36,2.36,1.9,12.27-.66,13.88-1.31.83-15.53,1.53-31.61,1.53-22.15.03-29.29.54-29.42,2.15-1.36,15.3,1.41,16.53,37.76,16.53h30.41l-.53,8.05Z"/>
  <path class="uuid-601e8162-865d-41bc-bc1a-892e7712dc9e" d="M227.8,368.63l-.51,8.05-33.05.37c-30.1.32-33.61.07-39.37-3-10.86-5.76-12.32-10.58-12.32-40.59,0-41.93.53-42.37,51.73-42.37h34.05l-.53,8.05-.51,8.05-31.24.46c-19.53.29-32.07,1.17-33.47,2.34-1.22,1.02-2.24,4.81-2.24,8.42v6.58h64.59l-.53,8.05-.51,8.05-31.78.46-31.78.46v5.9c0,3.64,1.31,7.2,3.39,9.29,3.14,3.14,5.64,3.39,33.98,3.39h30.61l-.53,8.05Z"/>
  <path class="uuid-601e8162-865d-41bc-bc1a-892e7712dc9e" d="M694.02,376.48c-2.92.58-17.98,1.05-33.49,1.05-31.49-.02-35.81-1.25-42.64-12.27-3.15-5.07-3.39-7.88-2.95-33.75.31-18.69.47-28.75,5.58-34.15,5.93-6.27,18.49-6.27,45.68-6.27h33.12v7.44c0,5.24-.8,7.76-2.68,8.47-1.47.58-15.53,1.03-31.24,1.03-31.95,0-34.52.83-33.54,10.81l.51,5.29,31.36.98c17.24.54,31.59,1.12,31.88,1.27.29.15.29,3.53,0,7.49l-.53,7.2-32,.46-32,.47.93,6.86c1.47,11.05,3.15,11.58,37.22,11.64l30.08.05v7.42c0,6.93-.34,7.47-5.29,8.47Z"/>
  <path class="uuid-601e8162-865d-41bc-bc1a-892e7712dc9e" d="M1157.32,371.14l-5.53,5.54-28.39.53c-27.34.51-28.58.39-34.29-3.42-10.27-6.86-11.85-12.32-11.83-41.17,0-40.47,1.31-41.52,51.71-41.52h33.2l-.53,8.05-.51,8.05-31.85.85c-25.76.68-32.17,1.34-33.52,3.39-.95,1.44-1.47,11.54-1.2,23.24.31,13.1.31,19.54,3.53,22.73,3.14,3.08,9.3,3.1,21.71,3.14h1.68c22.41.05,25.25-1.34,25.25-12.37v-6.22h-28.81v-15.36l22.46.47,22.46.47v38.08l-5.54,5.53Z"/>
  <path class="uuid-601e8162-865d-41bc-bc1a-892e7712dc9e" d="M747.62,317.94l-1.69,58.74-6.85.51c-3.76.27-7.37-.05-8.05-.71-.66-.66-1.2-20.15-1.2-43.3v-42.08h18.51l25.75,28.75c14.17,15.81,26.41,28.36,27.19,27.88.8-.49,1.44-13.44,1.44-28.76v-27.86h17l-.44,42.8-.46,42.8-7.71.51-7.71.49-15.12-16.59c-8.32-9.14-20.86-22.58-27.88-29.88l-12.76-13.27Z"/>
  <path class="uuid-601e8162-865d-41bc-bc1a-892e7712dc9e" d="M309.71,373.85c-1.63,2.56-13.97,4.66-15.9,2.71-.69-.71-1.27-16.39-1.27-34.85v-33.56l-18.22-.49-18.22-.47v-15.25l44.8-.46,1.51-.02c34.8-.34,43.27-.42,45.35,3.17.66,1.17.68,2.71.68,4.75v.27c.05,7.25-2.75,8.39-20.64,8.39h-16.61l-.03,31.78c0,17.47-.66,32.8-1.44,34.03Z"/>
  <path class="uuid-601e8162-865d-41bc-bc1a-892e7712dc9e" d="M578.74,300.12c-1.14-1.37-5.08-4.03-8.76-5.92-6.03-3.07-9.3-3.36-34-2.83-29.15.59-31.83,1.31-38.08,10.15-3.73,5.25-5.14,51.24-1.85,59.59,5.59,14.15,11.12,16.27,42.25,16.25,19.69,0,25.75-.58,30.44-2.9,10.56-5.19,13-11.03,14.03-33.68.97-21.12-.56-36.47-4.03-40.68ZM565.42,333.24c0,17.93-.24,19.25-4.15,23.19-3.93,3.92-5.27,4.15-22.97,4.15s-19.03-.24-22.97-4.15c-3.9-3.92-4.15-5.29-4.15-22.51v-1.14c0-12.2,0-18.39,3.08-21.52,3.19-3.22,9.63-3.22,22.69-3.22h3c13.07,0,19.44-.02,22.53,3.17,2.95,3.02,2.93,8.9,2.93,20.36v1.68Z"/>
  <path class="uuid-601e8162-865d-41bc-bc1a-892e7712dc9e" d="M1238.28,361.43l-.85,15.25-7.17.12c-3.93.07-7.95-.66-8.9-1.61s-1.73-7.59-1.73-14.75v-2.15c.02-2.81.03-4.93-.29-7-1.07-6.9-5.81-13.2-26.32-42.29-5.88-8.34-10.68-15.81-10.68-16.63s3.98-1.24,8.86-.95l8.85.51,11.44,16.1c6.29,8.85,12.73,17.93,14.3,20.19l2.86,4.08,3.54-4.25c3.25-3.95,21.51-29.9,24.54-34.93.92-1.53,4.42-2.05,11.12-1.69l9.8.51-13.97,19.49c-18.2,25.41-22.97,31.47-24.44,38.24-.69,3.12-.68,6.39-.98,11.76Z"/>
  <path class="uuid-601e8162-865d-41bc-bc1a-892e7712dc9e" d="M108.54,300.5c-5.47-8.36-10.86-9.41-48.15-9.41H26.44v42.08c0,23.15.54,42.64,1.2,43.3.68.66,4.29.98,8.05.71l6.85-.51.44-10.17c.36-8.47.1-12.95,2.2-15.29,2.34-2.59,7.59-2.58,19.88-2.53,1.86.02,3.88.02,6.07.02,24.17,0,26.39-.27,31.59-3.81,3.39-2.3,6.56-6.49,8.02-10.59,3.19-9.02,2-27.41-2.2-33.81ZM91.14,330.67c-4.49,4.07-45.17,4.17-46.71.12-.58-1.47-1.03-5.98-1.03-10.03v-.92c0-4.64-.02-7.46,1.37-9.17,2.12-2.63,7.53-2.63,21.29-2.63h1.76c15.12,0,23.02.66,24.39,2.03,3.27,3.27,2.54,17.3-1.07,20.59Z"/>
  <path class="uuid-601e8162-865d-41bc-bc1a-892e7712dc9e" d="M450.57,356.67c-4.15-5.42-7.27-10.02-6.95-10.22.34-.22,2.78-1.47,5.42-2.81,7.46-3.76,10.37-10.88,10.41-25.42.02-9.85-.73-13.81-3.29-17.61-5.73-8.47-10.98-9.51-48.32-9.51h-33.95v86.88l7.71-.86c4.24-.47,8.24-1.41,8.9-2.05.64-.66,1.44-7.22,1.78-14.61l.61-13.42h30.03l10.56,15.25c10.39,14.98,10.69,15.25,17.44,15.22,3.78,0,7.9-.68,9.15-1.47,2.9-1.83,1.07-5.56-9.51-19.36ZM414.01,331.77h-21.47v-23.73h22.54c15.27,0,23.2.66,24.58,2.03,1.12,1.12,2.03,5.2,2.03,9.05,0,11.47-2.56,12.64-27.68,12.64Z"/>
  <path class="uuid-601e8162-865d-41bc-bc1a-892e7712dc9e" d="M1040.15,360.53l-10.36-13.93,5.53-2.75c7.51-3.76,11.44-12.29,11.44-24.8s-3.93-21.03-11.86-25c-5.05-2.53-10.93-2.97-39.41-2.97h-33.47v86.63l8.05-.53,8.05-.51.49-14.9.49-14.88,15.49.47,15.47.49,10.42,14.41c10.36,14.36,10.44,14.41,18.58,14.93,4.49.29,8.9-.2,9.8-1.1,1.05-1.05-2.07-6.63-8.71-15.58ZM1026.36,328.5c-1.59,2.97-3.73,3.27-23.44,3.27-11.93,0-22.2-.51-22.81-1.14-.63-.61-1.14-5.95-1.14-11.86v-10.73h22.54c15.27,0,23.2.66,24.58,2.03,2.49,2.49,2.68,13.95.27,18.42Z"/>
</svg>